<?xml version="1.0" standalone="no"?>
<!DOCTYPE svg PUBLIC "-//W3C//DTD SVG 20010904//EN"
 "http://www.w3.org/TR/2001/REC-SVG-20010904/DTD/svg10.dtd">
<svg version="1.0" xmlns="http://www.w3.org/2000/svg"
 width="1118.000000pt" height="903.000000pt" viewBox="0 0 1118.000000 903.000000"
 preserveAspectRatio="xMidYMid meet">

<g transform="translate(0.000000,903.000000) scale(0.100000,-0.100000)"
fill="#000000" stroke="none">
<path d="M3193 6958 c-7 -9 -12 -801 -14 -2433 l-4 -2420 73 -3 c53 -2 71 -6
65 -15 -5 -9 -3 -9 8 0 12 10 180 12 735 11 395 -1 643 -5 549 -8 l-170 -5
151 -5 c83 -3 180 -3 215 -1 60 5 62 5 24 12 -22 3 122 7 320 7 236 1 355 -2
345 -8 -12 -8 -8 -10 15 -11 26 -2 25 -3 -10 -9 -22 -3 46 -4 150 -2 105 3
191 8 193 12 1 4 19 4 40 0 20 -3 141 -2 267 3 127 4 595 6 1042 2 566 -4 813
-3 818 5 3 6 11 8 16 5 5 -4 9 1 9 10 0 9 -4 14 -9 11 -4 -3 -11 31 -14 76 -5
69 -3 84 11 95 16 11 16 12 0 13 -17 0 -18 91 -18 1766 0 1592 -2 1766 -16
1760 -8 -3 -13 -2 -10 2 2 4 -190 6 -427 4 l-432 -3 -18 28 c-15 23 -17 24
-12 6 4 -13 4 -27 1 -32 -4 -5 -6 -813 -6 -1795 0 -1584 -2 -1786 -15 -1786
-10 0 -15 10 -16 28 0 15 -3 21 -6 15 -2 -7 -13 -13 -24 -13 -10 0 -19 -7 -19
-15 0 -12 -18 -15 -105 -15 l-105 0 0 31 c0 17 -4 28 -10 24 -6 -4 -11 388
-13 1127 -2 623 -7 1148 -11 1166 -7 29 -6 32 10 25 18 -7 18 -6 2 11 -23 23
-24 48 -1 39 11 -4 14 -3 9 5 -8 13 -59 8 -63 -5 -4 -12 -755 -5 -763 6 -6 11
-50 11 -50 0 0 -4 6 -9 13 -12 6 -2 -5 -6 -25 -8 -26 -4 -38 -1 -38 7 0 8 9
11 21 9 12 -3 19 -1 15 2 -4 4 -15 8 -26 10 -23 3 -28 -25 -7 -46 10 -11 10
-13 0 -7 -9 5 -13 0 -13 -13 0 -10 6 -22 13 -25 10 -5 10 -7 0 -12 -10 -4 -13
-248 -13 -1170 l0 -1163 -137 2 -138 2 -2 1450 c-2 1353 -4 1450 -19 1450 -10
0 -19 5 -21 10 -2 7 -146 8 -415 5 -227 -3 -423 -4 -435 -2 -16 2 -23 11 -24
25 -1 12 -7 -7 -14 -43 -11 -52 -14 -338 -14 -1477 -1 -1212 -3 -1413 -15
-1413 -8 0 -17 6 -19 13 -4 9 -6 9 -6 0 -1 -10 -34 -13 -131 -13 l-130 0 0
945 0 945 -22 0 c-13 1 -221 2 -463 3 l-440 2 5 -930 c3 -511 2 -934 -2 -939
-3 -5 -19 -5 -34 -2 -20 5 -24 10 -15 19 7 7 11 51 11 119 0 65 4 108 10 108
6 0 10 5 10 11 0 5 -4 7 -10 4 -5 -3 -10 3 -10 15 0 13 4 19 11 14 7 -4 9 0 6
12 -11 38 -19 1510 -8 1494 14 -20 14 -4 0 22 -12 22 -18 198 -7 198 3 0 4 24
1 53 -3 28 -5 61 -5 72 1 11 1 103 0 205 -1 102 -2 223 -1 270 8 371 13 1991
7 2002 -4 7 -8 24 -8 38 -1 24 -3 25 -77 28 -53 2 -79 -1 -86 -10z m154 -4500
c-2 -13 -4 -5 -4 17 -1 22 1 32 4 23 2 -10 2 -28 0 -40z m2203 -168 c0 -5 -2
-10 -4 -10 -3 0 -8 5 -11 10 -3 6 -1 10 4 10 6 0 11 -4 11 -10z m1230 -32 c0
-5 -7 -8 -15 -8 -17 0 -18 2 -9 25 5 13 8 14 15 3 5 -7 9 -16 9 -20z m1207 0
c-3 -8 -6 -5 -6 6 -1 11 2 17 5 13 3 -3 4 -12 1 -19z m-4594 5 c-7 -2 -19 -2
-25 0 -7 3 -2 5 12 5 14 0 19 -2 13 -5z"/>
<path d="M7702 6875 c4 -5 2 -15 -5 -24 -10 -14 -10 -14 4 -3 14 11 16 9 13
-15 -2 -16 -1 -22 2 -15 4 8 11 6 26 -10 11 -13 16 -16 12 -8 -5 8 -9 20 -10
25 0 6 -2 15 -2 22 -1 7 -12 18 -24 24 -13 6 -20 8 -16 4z"/>
<path d="M3384 6855 c8 -8 20 -15 27 -15 7 0 4 6 -7 15 -25 19 -40 19 -20 0z"/>
<path d="M3410 6820 c0 -5 5 -10 11 -10 5 0 7 5 4 10 -3 6 -8 10 -11 10 -2 0
-4 -4 -4 -10z"/>
<path d="M7680 6800 c0 -5 5 -10 10 -10 6 0 10 5 10 10 0 6 -4 10 -10 10 -5 0
-10 -4 -10 -10z"/>
<path d="M7770 6800 c0 -5 5 -10 10 -10 6 0 10 5 10 10 0 6 -4 10 -10 10 -5 0
-10 -4 -10 -10z"/>
<path d="M3440 6796 c0 -2 7 -7 16 -10 8 -3 12 -2 9 4 -6 10 -25 14 -25 6z"/>
<path d="M7810 6760 c0 -5 5 -10 10 -10 6 0 10 5 10 10 0 6 -4 10 -10 10 -5 0
-10 -4 -10 -10z"/>
<path d="M3480 6750 c0 -5 5 -10 11 -10 5 0 7 5 4 10 -3 6 -8 10 -11 10 -2 0
-4 -4 -4 -10z"/>
<path d="M7657 6731 c-4 -17 -3 -21 5 -13 5 5 8 16 6 23 -3 8 -7 3 -11 -10z"/>
<path d="M7840 6730 c0 -5 5 -10 11 -10 5 0 7 5 4 10 -3 6 -8 10 -11 10 -2 0
-4 -4 -4 -10z"/>
<path d="M3510 6720 c0 -5 7 -10 16 -10 8 0 12 5 9 10 -3 6 -10 10 -16 10 -5
0 -9 -4 -9 -10z"/>
<path d="M7880 6690 c0 -5 5 -10 11 -10 5 0 7 5 4 10 -3 6 -8 10 -11 10 -2 0
-4 -4 -4 -10z"/>
<path d="M3550 6680 c0 -5 5 -10 11 -10 5 0 7 5 4 10 -3 6 -8 10 -11 10 -2 0
-4 -4 -4 -10z"/>
<path d="M7651 6673 c0 -4 4 -17 9 -28 8 -19 9 -19 9 2 1 12 -3 25 -9 28 -5 3
-10 3 -9 -2z"/>
<path d="M7910 6660 c0 -5 5 -10 11 -10 5 0 7 5 4 10 -3 6 -8 10 -11 10 -2 0
-4 -4 -4 -10z"/>
<path d="M3580 6656 c0 -2 7 -7 16 -10 8 -3 12 -2 9 4 -6 10 -25 14 -25 6z"/>
<path d="M7628 6629 c-2 -14 1 -31 9 -37 10 -10 13 -9 12 5 0 10 -4 27 -8 38
-7 18 -8 17 -13 -6z"/>
<path d="M7950 6620 c0 -5 5 -10 10 -10 6 0 10 5 10 10 0 6 -4 10 -10 10 -5 0
-10 -4 -10 -10z"/>
<path d="M3620 6610 c0 -5 5 -10 11 -10 5 0 7 5 4 10 -3 6 -8 10 -11 10 -2 0
-4 -4 -4 -10z"/>
<path d="M7980 6590 c0 -5 5 -10 11 -10 5 0 7 5 4 10 -3 6 -8 10 -11 10 -2 0
-4 -4 -4 -10z"/>
<path d="M3652 6581 c4 -13 18 -16 19 -4 0 4 -5 9 -11 12 -7 2 -11 -2 -8 -8z"/>
<path d="M7613 6556 c3 -8 0 -20 -8 -26 -7 -6 -11 -20 -8 -30 3 -12 -1 -22
-11 -26 -13 -5 -13 -10 -5 -27 11 -20 12 -20 25 -2 17 22 19 65 3 65 -6 0 -3
7 5 16 18 18 21 44 5 44 -6 0 -9 -6 -6 -14z"/>
<path d="M7653 6540 c0 -16 4 -27 9 -24 4 3 8 14 8 24 0 10 -4 21 -8 24 -5 3
-9 -8 -9 -24z"/>
<path d="M8020 6550 c0 -5 5 -10 11 -10 5 0 7 5 4 10 -3 6 -8 10 -11 10 -2 0
-4 -4 -4 -10z"/>
<path d="M3690 6540 c0 -5 5 -10 11 -10 5 0 7 5 4 10 -3 6 -8 10 -11 10 -2 0
-4 -4 -4 -10z"/>
<path d="M8050 6520 c0 -5 5 -10 11 -10 5 0 7 5 4 10 -3 6 -8 10 -11 10 -2 0
-4 -4 -4 -10z"/>
<path d="M3732 6506 c7 -8 15 -12 17 -11 5 6 -10 25 -20 25 -5 0 -4 -6 3 -14z"/>
<path d="M8090 6480 c0 -5 5 -10 10 -10 6 0 10 5 10 10 0 6 -4 10 -10 10 -5 0
-10 -4 -10 -10z"/>
<path d="M3760 6470 c0 -5 5 -10 11 -10 5 0 7 5 4 10 -3 6 -8 10 -11 10 -2 0
-4 -4 -4 -10z"/>
<path d="M7650 6430 c0 -16 5 -30 10 -30 6 0 10 14 10 30 0 17 -4 30 -10 30
-5 0 -10 -13 -10 -30z"/>
<path d="M8120 6450 c0 -5 5 -10 11 -10 5 0 7 5 4 10 -3 6 -8 10 -11 10 -2 0
-4 -4 -4 -10z"/>
<path d="M3796 6442 c-3 -6 -1 -14 5 -17 15 -10 25 3 12 16 -7 7 -13 7 -17 1z"/>
<path d="M7573 6403 c0 -18 4 -30 8 -28 4 3 5 -22 2 -55 -4 -39 -2 -60 5 -60
6 0 12 -8 14 -17 2 -10 3 14 2 53 -1 40 -4 76 -8 82 -3 6 -3 18 1 28 4 11 3
15 -4 11 -6 -4 -13 -1 -15 5 -3 7 -5 -1 -5 -19z"/>
<path d="M8160 6410 c0 -5 5 -10 11 -10 5 0 7 5 4 10 -3 6 -8 10 -11 10 -2 0
-4 -4 -4 -10z"/>
<path d="M3830 6400 c0 -5 5 -10 11 -10 5 0 7 5 4 10 -3 6 -8 10 -11 10 -2 0
-4 -4 -4 -10z"/>
<path d="M8190 6380 c0 -5 5 -10 11 -10 5 0 7 5 4 10 -3 6 -8 10 -11 10 -2 0
-4 -4 -4 -10z"/>
<path d="M3876 6367 c3 -10 9 -15 12 -12 3 3 0 11 -7 18 -10 9 -11 8 -5 -6z"/>
<path d="M7635 6333 c3 -21 11 -42 17 -48 8 -7 9 -4 4 8 -3 10 -6 32 -6 48 0
16 -5 29 -11 29 -8 0 -9 -13 -4 -37z"/>
<path d="M8230 6340 c0 -5 5 -10 10 -10 6 0 10 5 10 10 0 6 -4 10 -10 10 -5 0
-10 -4 -10 -10z"/>
<path d="M3900 6330 c0 -6 -4 -8 -10 -5 -16 10 -11 -1 7 -16 9 -8 14 -9 10 -2
-4 6 -2 13 5 15 9 3 9 6 0 12 -7 4 -12 2 -12 -4z"/>
<path d="M8260 6310 c0 -5 5 -10 11 -10 5 0 7 5 4 10 -3 6 -8 10 -11 10 -2 0
-4 -4 -4 -10z"/>
<path d="M3960 6281 c0 -13 29 -41 43 -41 6 0 1 7 -11 16 -12 8 -20 20 -17 25
4 5 1 9 -4 9 -6 0 -11 -4 -11 -9z"/>
<path d="M8300 6270 c0 -5 5 -10 11 -10 5 0 7 5 4 10 -3 6 -8 10 -11 10 -2 0
-4 -4 -4 -10z"/>
<path d="M7555 6240 c-3 -5 -1 -10 4 -10 6 0 11 5 11 10 0 6 -2 10 -4 10 -3 0
-8 -4 -11 -10z"/>
<path d="M8330 6240 c0 -5 5 -10 11 -10 5 0 7 5 4 10 -3 6 -8 10 -11 10 -2 0
-4 -4 -4 -10z"/>
<path d="M3958 6233 c7 -3 16 -2 19 1 4 3 -2 6 -13 5 -11 0 -14 -3 -6 -6z"/>
<path d="M7280 6215 c-7 -9 -10 -18 -7 -22 4 -3 0 -11 -9 -17 -14 -10 -12 -15
12 -39 31 -31 37 -33 54 -12 7 8 18 15 25 15 25 0 24 28 0 33 -14 2 -22 1 -20
-3 2 -4 -2 -16 -10 -26 -14 -18 -16 -18 -29 -1 -7 9 -19 17 -27 17 -8 0 1 10
19 21 35 23 42 32 15 22 -12 -5 -15 -2 -10 10 8 21 3 22 -13 2z"/>
<path d="M8370 6200 c0 -5 5 -10 10 -10 6 0 10 5 10 10 0 6 -4 10 -10 10 -5 0
-10 -4 -10 -10z"/>
<path d="M8400 6170 c0 -5 5 -10 11 -10 5 0 7 5 4 10 -3 6 -8 10 -11 10 -2 0
-4 -4 -4 -10z"/>
<path d="M7222 6148 c2 -6 10 -13 16 -14 7 -1 8 0 2 3 -5 2 -8 9 -4 14 3 5 0
9 -6 9 -7 0 -10 -5 -8 -12z"/>
<path d="M7510 6143 c6 -13 8 -24 5 -24 -3 -1 -10 -2 -17 -3 -6 0 -13 -8 -15
-16 -4 -12 -3 -12 5 -1 8 11 10 11 14 0 3 -10 8 -8 16 7 9 17 8 25 -4 40 -14
18 -15 18 -4 -3z"/>
<path d="M7412 6137 c10 -8 16 -16 13 -19 -3 -2 2 -5 10 -5 19 0 10 14 -18 27
-20 10 -20 10 -5 -3z"/>
<path d="M8440 6130 c0 -5 5 -10 11 -10 5 0 7 5 4 10 -3 6 -8 10 -11 10 -2 0
-4 -4 -4 -10z"/>
<path d="M7203 6113 c-7 -2 -13 -9 -13 -15 0 -6 7 -7 16 -4 9 4 13 2 8 -5 -7
-11 12 -29 31 -29 6 0 4 4 -3 9 -7 4 -14 18 -15 29 -1 23 -3 24 -24 15z"/>
<path d="M7366 6106 c3 -9 13 -16 22 -16 8 0 13 1 11 3 -2 1 -12 9 -22 16 -15
12 -17 12 -11 -3z"/>
<path d="M7250 6100 c0 -6 7 -10 15 -10 8 0 15 2 15 4 0 2 -7 6 -15 10 -8 3
-15 1 -15 -4z"/>
<path d="M8470 6100 c0 -5 5 -10 11 -10 5 0 7 5 4 10 -3 6 -8 10 -11 10 -2 0
-4 -4 -4 -10z"/>
<path d="M7328 6093 c7 -3 16 -2 19 1 4 3 -2 6 -13 5 -11 0 -14 -3 -6 -6z"/>
<path d="M4170 6065 c-7 -9 -11 -17 -9 -20 3 -2 10 5 17 15 14 24 10 26 -8 5z"/>
<path d="M7150 6070 c0 -5 5 -10 11 -10 5 0 7 5 4 10 -3 6 -8 10 -11 10 -2 0
-4 -4 -4 -10z"/>
<path d="M7180 6051 c0 -10 11 -26 25 -35 14 -9 25 -12 25 -6 0 5 -4 10 -10
10 -5 0 -10 9 -10 19 0 10 -7 21 -15 25 -10 3 -15 -1 -15 -13z"/>
<path d="M8510 6060 c0 -5 5 -10 11 -10 5 0 7 5 4 10 -3 6 -8 10 -11 10 -2 0
-4 -4 -4 -10z"/>
<path d="M8540 6030 c0 -5 5 -10 11 -10 5 0 7 5 4 10 -3 6 -8 10 -11 10 -2 0
-4 -4 -4 -10z"/>
<path d="M7130 6012 c0 -11 8 -18 19 -18 21 0 18 21 -5 30 -9 3 -14 -1 -14
-12z"/>
<path d="M7089 6008 c-6 -21 -5 -38 1 -38 5 0 8 9 7 20 -1 17 -5 26 -8 18z"/>
<path d="M4235 5989 c-4 -6 -5 -12 -2 -15 2 -3 7 2 10 11 7 17 1 20 -8 4z"/>
<path d="M8580 5990 c0 -5 5 -10 11 -10 5 0 7 5 4 10 -3 6 -8 10 -11 10 -2 0
-4 -4 -4 -10z"/>
<path d="M7180 5980 c0 -6 7 -10 15 -10 8 0 15 2 15 4 0 2 -7 6 -15 10 -8 3
-15 1 -15 -4z"/>
<path d="M7111 5964 c0 -11 3 -14 6 -6 3 7 2 16 -1 19 -3 4 -6 -2 -5 -13z"/>
<path d="M7220 5960 c-12 -8 -10 -10 8 -10 13 0 20 4 17 10 -7 12 -6 12 -25 0z"/>
<path d="M8610 5960 c0 -5 5 -10 10 -10 6 0 10 5 10 10 0 6 -4 10 -10 10 -5 0
-10 -4 -10 -10z"/>
<path d="M7037 5943 c-4 -3 -7 -11 -7 -17 0 -6 5 -5 12 2 6 6 9 14 7 17 -3 3
-9 2 -12 -2z"/>
<path d="M4310 5925 c-7 -9 -11 -17 -9 -20 3 -2 10 5 17 15 14 24 10 26 -8 5z"/>
<path d="M7052 5915 c-10 -12 -10 -15 1 -15 8 0 20 7 27 15 17 21 -10 20 -28
0z"/>
<path d="M8650 5920 c0 -5 5 -10 11 -10 5 0 7 5 4 10 -3 6 -8 10 -11 10 -2 0
-4 -4 -4 -10z"/>
<path d="M8680 5890 c0 -5 5 -10 11 -10 5 0 7 5 4 10 -3 6 -8 10 -11 10 -2 0
-4 -4 -4 -10z"/>
<path d="M7020 5883 c-8 -4 -21 -13 -28 -22 -8 -9 -11 -10 -7 -3 3 6 1 12 -4
12 -6 0 -11 -9 -11 -20 0 -22 25 -18 34 6 3 8 12 14 21 14 8 0 15 5 15 10 0 6
-1 10 -2 9 -2 0 -10 -3 -18 -6z"/>
<path d="M4380 5855 c-7 -9 -11 -17 -9 -20 3 -2 10 5 17 15 14 24 10 26 -8 5z"/>
<path d="M7966 5853 c21 -15 45 -14 51 4 3 7 -9 11 -32 10 -33 -1 -35 -2 -19
-14z"/>
<path d="M8720 5850 c0 -5 5 -10 11 -10 5 0 7 5 4 10 -3 6 -8 10 -11 10 -2 0
-4 -4 -4 -10z"/>
<path d="M5166 5834 c-3 -8 -2 -12 4 -9 6 3 10 1 10 -4 0 -6 5 -11 11 -11 8 0
9 4 0 13 -6 8 -8 17 -4 20 3 4 2 7 -4 7 -6 0 -14 -7 -17 -16z"/>
<path d="M7007 5833 c-10 -9 -9 -23 1 -23 5 0 9 7 9 15 0 17 -1 18 -10 8z"/>
<path d="M7035 5829 c-4 -6 -4 -13 -1 -16 3 -4 6 -1 6 6 0 7 5 9 12 5 7 -4 8
-3 4 4 -9 15 -13 15 -21 1z"/>
<path d="M5225 5820 c3 -5 11 -10 16 -10 6 0 7 5 4 10 -3 6 -11 10 -16 10 -6
0 -7 -4 -4 -10z"/>
<path d="M6935 5820 c-3 -5 -3 -15 1 -22 5 -7 2 -9 -9 -5 -25 9 -34 -33 -11
-50 9 -7 14 -16 11 -20 -8 -7 21 -43 36 -43 5 0 4 7 -3 15 -10 12 -10 15 0 15
7 0 -3 13 -21 30 -37 33 -33 39 9 14 22 -13 24 -13 8 -1 -10 9 -16 22 -13 29
4 11 6 11 6 0 1 -7 6 -10 12 -7 6 5 4 12 -8 21 -16 12 -16 15 -3 24 9 6 10 10
3 10 -6 0 -15 -4 -18 -10z"/>
<path d="M8750 5820 c0 -5 5 -10 10 -10 6 0 10 5 10 10 0 6 -4 10 -10 10 -5 0
-10 -4 -10 -10z"/>
<path d="M7050 4061 c0 -1156 3 -1752 10 -1756 7 -4 10 582 10 1749 0 1164 -3
1756 -10 1756 -7 0 -10 -590 -10 -1749z"/>
<path d="M8050 4061 c0 -1156 3 -1752 10 -1756 7 -4 10 582 10 1749 0 1164 -3
1756 -10 1756 -7 0 -10 -590 -10 -1749z"/>
<path d="M4452 5788 c-7 -7 -12 -17 -12 -22 0 -6 5 -3 11 7 6 9 15 14 21 11 7
-4 8 -2 4 4 -9 15 -9 15 -24 0z"/>
<path d="M5250 5789 c-13 -9 -12 -10 2 -6 9 3 22 -1 28 -9 10 -11 9 -14 -4
-14 -23 0 -20 -15 4 -17 25 -2 26 19 2 40 -13 12 -21 13 -32 6z"/>
<path d="M5124 5782 c3 -6 0 -13 -6 -16 -7 -3 -4 -5 6 -3 21 2 25 19 5 26 -6
2 -9 -1 -5 -7z"/>
<path d="M8790 5780 c0 -5 5 -10 11 -10 5 0 7 5 4 10 -3 6 -8 10 -11 10 -2 0
-4 -4 -4 -10z"/>
<path d="M4480 5750 c-9 -6 -10 -10 -3 -10 6 0 15 5 18 10 8 12 4 12 -15 0z"/>
<path d="M8820 5750 c0 -5 5 -10 11 -10 5 0 7 5 4 10 -3 6 -8 10 -11 10 -2 0
-4 -4 -4 -10z"/>
<path d="M5305 5729 c-4 -6 -5 -13 -2 -16 7 -7 27 6 27 18 0 12 -17 12 -25 -2z"/>
<path d="M6866 5725 c-4 -10 -2 -14 5 -9 7 4 10 1 7 -7 -3 -8 -12 -13 -22 -11
-9 2 -16 -2 -16 -8 0 -6 5 -8 10 -5 6 3 10 2 10 -3 0 -5 6 -9 14 -9 8 0 12 6
8 15 -4 11 -1 14 11 9 22 -8 21 -5 -2 22 -16 18 -20 19 -25 6z"/>
<path d="M4520 5715 c-7 -9 -11 -17 -9 -20 3 -2 10 5 17 15 14 24 10 26 -8 5z"/>
<path d="M5361 5723 c-8 -3 -25 -17 -38 -29 -18 -18 -20 -24 -8 -24 8 0 15 5
15 11 0 6 7 9 15 5 8 -3 14 -1 12 3 -1 5 3 8 8 8 6 -1 9 -8 9 -15 -2 -10 1
-10 13 -1 12 11 12 14 -2 21 -8 5 -13 13 -10 19 7 10 6 10 -14 2z"/>
<path d="M8860 5710 c0 -5 5 -10 11 -10 5 0 7 5 4 10 -3 6 -8 10 -11 10 -2 0
-4 -4 -4 -10z"/>
<path d="M5040 5679 c0 -11 4 -18 10 -14 5 3 7 12 3 20 -7 21 -13 19 -13 -6z"/>
<path d="M8890 5680 c0 -5 5 -10 10 -10 6 0 10 5 10 10 0 6 -4 10 -10 10 -5 0
-10 -4 -10 -10z"/>
<path d="M4495 5664 c-11 -12 -13 -20 -6 -27 13 -13 20 -7 26 22 5 25 2 26
-20 5z"/>
<path d="M5423 5663 c0 -12 5 -19 9 -17 4 3 9 0 9 -5 1 -6 2 -17 3 -23 0 -7
12 -14 26 -16 19 -2 22 -1 10 7 -8 5 -19 7 -25 3 -5 -3 -4 2 3 11 14 17 8 42
-8 32 -5 -3 -13 3 -19 12 -9 16 -10 16 -8 -4z"/>
<path d="M4525 5639 c-4 -6 -5 -12 -2 -15 2 -3 7 2 10 11 7 17 1 20 -8 4z"/>
<path d="M4984 5641 c4 -5 0 -12 -6 -14 -8 -3 -6 -6 5 -6 9 -1 17 6 17 14 0 8
-5 15 -11 15 -5 0 -8 -4 -5 -9z"/>
<path d="M6793 5643 c9 -2 17 -11 17 -19 0 -8 -4 -13 -9 -10 -5 3 -12 -1 -15
-10 -10 -26 0 -27 23 -3 23 24 13 50 -18 48 -13 -1 -13 -2 2 -6z"/>
<path d="M8930 5640 c0 -5 5 -10 11 -10 5 0 7 5 4 10 -3 6 -8 10 -11 10 -2 0
-4 -4 -4 -10z"/>
<path d="M4454 5622 c-6 -4 -11 -14 -11 -24 0 -13 4 -14 19 -5 10 7 18 15 18
19 0 11 -15 17 -26 10z"/>
<path d="M8960 5610 c0 -5 5 -10 11 -10 5 0 7 5 4 10 -3 6 -8 10 -11 10 -2 0
-4 -4 -4 -10z"/>
<path d="M6725 5590 c-3 -5 -1 -10 4 -10 6 0 11 5 11 10 0 6 -2 10 -4 10 -3 0
-8 -4 -11 -10z"/>
<path d="M4459 5573 c-13 -16 -12 -17 4 -4 16 13 21 21 13 21 -2 0 -10 -8 -17
-17z"/>
<path d="M5490 5582 c0 -4 10 -9 22 -9 18 -2 20 0 8 7 -18 12 -30 13 -30 2z"/>
<path d="M5445 5567 c28 -19 57 -29 50 -17 -3 6 -13 10 -21 10 -8 0 -14 5 -14
10 0 6 -8 10 -17 10 -15 0 -15 -2 2 -13z"/>
<path d="M6755 5570 c-4 -6 -11 -7 -17 -4 -7 4 -8 2 -4 -5 4 -6 12 -9 17 -6 5
4 16 -1 25 -9 25 -26 36 -18 12 9 -25 29 -25 29 -33 15z"/>
<path d="M6790 5570 c0 -5 5 -10 10 -10 6 0 10 5 10 10 0 6 -4 10 -10 10 -5 0
-10 -4 -10 -10z"/>
<path d="M9000 5570 c0 -5 5 -10 11 -10 5 0 7 5 4 10 -3 6 -8 10 -11 10 -2 0
-4 -4 -4 -10z"/>
<path d="M5570 5566 c0 -2 8 -10 18 -17 15 -13 16 -12 3 4 -13 16 -21 21 -21
13z"/>
<path d="M4902 5540 c0 -14 2 -19 5 -12 2 6 2 18 0 25 -3 6 -5 1 -5 -13z"/>
<path d="M5522 5548 c-14 -14 -16 -28 -3 -28 9 0 24 30 18 36 -2 2 -9 -2 -15
-8z"/>
<path d="M9030 5540 c0 -5 5 -10 10 -10 6 0 10 5 10 10 0 6 -4 10 -10 10 -5 0
-10 -4 -10 -10z"/>
<path d="M5566 5531 c-4 -7 -5 -15 -2 -18 9 -9 19 4 14 18 -4 11 -6 11 -12 0z"/>
<path d="M4340 5522 c0 -13 36 -43 42 -36 4 3 -2 14 -13 25 -21 21 -29 24 -29
11z"/>
<path d="M5622 5513 c-25 -5 -25 -26 0 -31 9 -2 18 6 21 18 3 11 4 19 4 19 -1
-1 -12 -4 -25 -6z"/>
<path d="M6666 5503 c2 -6 -1 -13 -6 -15 -4 -2 -1 -10 8 -18 14 -13 15 -12 9
3 -3 9 -2 17 3 17 6 0 10 5 10 11 0 5 -4 8 -9 5 -5 -4 -11 -3 -14 1 -2 5 -2 3
-1 -4z"/>
<path d="M4844 5501 c4 -5 0 -12 -6 -14 -8 -3 -6 -6 5 -6 9 -1 17 6 17 14 0 8
-5 15 -11 15 -5 0 -8 -4 -5 -9z"/>
<path d="M9070 5500 c0 -5 5 -10 11 -10 5 0 7 5 4 10 -3 6 -8 10 -11 10 -2 0
-4 -4 -4 -10z"/>
<path d="M4303 5462 c1 -14 5 -18 11 -12 7 7 6 14 -1 21 -9 9 -12 7 -10 -9z"/>
<path d="M9100 5470 c0 -5 5 -10 11 -10 5 0 7 5 4 10 -3 6 -8 10 -11 10 -2 0
-4 -4 -4 -10z"/>
<path d="M5702 5451 c2 -7 7 -12 11 -12 12 1 9 15 -3 20 -7 2 -11 -2 -8 -8z"/>
<path d="M6620 5451 c0 -7 -4 -9 -10 -6 -5 3 -15 -5 -22 -19 -6 -14 -15 -26
-20 -26 -5 0 -6 -5 -2 -11 4 -7 14 0 25 18 10 15 19 24 19 18 0 -5 5 -2 11 8
6 10 8 21 5 24 -3 4 -6 1 -6 -6z"/>
<path d="M4319 5433 c-13 -16 -12 -17 4 -4 9 7 17 15 17 17 0 8 -8 3 -21 -13z"/>
<path d="M5577 5426 c-4 -10 -1 -13 7 -10 7 3 20 -2 29 -10 9 -9 19 -16 23
-16 5 0 3 5 -3 11 -6 6 -9 18 -6 25 3 10 -3 14 -20 14 -14 0 -27 -7 -30 -14z"/>
<path d="M5650 5424 c0 -11 6 -14 20 -9 14 5 20 2 20 -9 0 -9 4 -16 10 -16 6
0 5 10 -2 25 -12 27 -48 34 -48 9z"/>
<path d="M6668 5433 c7 -3 16 -2 19 1 4 3 -2 6 -13 5 -11 0 -14 -3 -6 -6z"/>
<path d="M9140 5430 c0 -5 5 -10 11 -10 5 0 7 5 4 10 -3 6 -8 10 -11 10 -2 0
-4 -4 -4 -10z"/>
<path d="M5735 5421 c-7 -12 24 -31 53 -31 4 0 0 -5 -8 -11 -13 -9 -12 -10 2
-5 11 3 24 -4 37 -19 10 -14 24 -25 31 -25 18 0 6 24 -19 36 -12 6 -32 20 -44
31 -32 29 -45 35 -52 24z"/>
<path d="M4762 5400 c0 -14 2 -19 5 -12 2 6 2 18 0 25 -3 6 -5 1 -5 -13z"/>
<path d="M6625 5407 c-11 -9 -14 -16 -8 -20 6 -4 21 2 33 13 27 23 6 29 -25 7z"/>
<path d="M9170 5400 c0 -5 5 -10 10 -10 6 0 10 5 10 10 0 6 -4 10 -10 10 -5 0
-10 -4 -10 -10z"/>
<path d="M5720 5388 c0 -10 5 -18 10 -18 6 0 10 -11 10 -23 0 -35 32 -67 58
-60 13 3 22 1 22 -6 0 -6 5 -11 10 -11 6 0 10 7 10 15 0 8 5 15 10 15 6 0 10
5 10 12 0 7 -6 6 -17 -4 -10 -9 -24 -13 -31 -11 -16 6 -62 51 -62 62 0 4 -7
16 -15 27 -13 17 -14 17 -15 2z"/>
<path d="M4172 5374 c-12 -13 -10 -14 12 -8 16 4 26 2 26 -5 0 -17 14 -13 26
7 10 16 8 18 -20 20 -17 1 -37 -5 -44 -14z"/>
<path d="M6533 5368 c-22 -29 -24 -41 -3 -20 12 13 20 25 17 28 -2 2 -9 -1
-14 -8z"/>
<path d="M9210 5360 c0 -5 5 -10 11 -10 5 0 7 5 4 10 -3 6 -8 10 -11 10 -2 0
-4 -4 -4 -10z"/>
<path d="M4698 5343 c7 -3 16 -2 19 1 4 3 -2 6 -13 5 -11 0 -14 -3 -6 -6z"/>
<path d="M4160 5330 c0 -5 6 -10 13 -10 7 0 8 -3 2 -8 -5 -4 -11 -14 -13 -22
-1 -9 6 -5 18 9 16 19 18 26 8 32 -18 12 -28 11 -28 -1z"/>
<path d="M5871 5324 c0 -11 3 -14 6 -6 3 7 2 16 -1 19 -3 4 -6 -2 -5 -13z"/>
<path d="M9240 5330 c0 -5 5 -10 11 -10 5 0 7 5 4 10 -3 6 -8 10 -11 10 -2 0
-4 -4 -4 -10z"/>
<path d="M4646 5295 c4 -8 10 -15 14 -15 5 0 10 -9 12 -21 3 -21 3 -21 26 -1
12 11 22 25 22 33 0 8 -4 7 -13 -5 -12 -16 -14 -16 -36 3 -29 25 -32 26 -25 6z"/>
<path d="M6474 5294 c-18 -14 -18 -15 4 -4 12 6 22 13 22 15 0 8 -5 6 -26 -11z"/>
<path d="M5882 5273 c-22 -22 -22 -23 -2 -23 11 0 20 7 20 15 0 8 6 12 14 9 8
-3 17 0 22 7 5 8 3 10 -6 4 -7 -4 -15 -3 -19 2 -3 6 -16 0 -29 -14z"/>
<path d="M6495 5283 c-19 -15 -19 -15 4 -8 16 5 21 4 17 -4 -4 -6 -2 -11 3
-11 13 0 14 10 3 27 -5 8 -12 7 -27 -4z"/>
<path d="M9280 5290 c0 -5 5 -10 11 -10 5 0 7 5 4 10 -3 6 -8 10 -11 10 -2 0
-4 -4 -4 -10z"/>
<path d="M4612 5278 c-7 -7 -12 -26 -11 -42 0 -17 3 -24 6 -16 3 8 13 23 21
33 19 21 3 44 -16 25z"/>
<path d="M5705 5260 c-3 -5 -1 -10 4 -10 6 0 11 5 11 10 0 6 -2 10 -4 10 -3 0
-8 -4 -11 -10z"/>
<path d="M5935 5259 c-4 -6 -5 -12 -2 -15 2 -3 7 2 10 11 7 17 1 20 -8 4z"/>
<path d="M9310 5260 c0 -5 5 -10 11 -10 5 0 7 5 4 10 -3 6 -8 10 -11 10 -2 0
-4 -4 -4 -10z"/>
<path d="M6439 5243 c-1 -10 -1 -26 0 -35 1 -10 -3 -18 -9 -18 -6 0 -9 4 -6 9
3 5 0 11 -8 14 -10 4 -12 0 -9 -14 10 -37 54 -10 48 30 -1 9 0 10 2 3 3 -7 8
-10 13 -7 13 8 0 35 -16 35 -8 0 -15 -8 -15 -17z"/>
<path d="M4033 5235 c-19 -21 -16 -27 7 -13 11 7 20 16 20 20 0 12 -14 9 -27
-7z"/>
<path d="M4088 5236 c-22 -16 -23 -26 -2 -26 9 0 12 -5 8 -12 -4 -7 -3 -8 5
-4 9 6 9 11 -1 24 -11 13 -10 15 4 9 12 -4 15 -2 11 9 -6 17 -4 17 -25 0z"/>
<path d="M4707 5238 c-7 -4 156 -9 361 -10 204 -2 371 0 369 5 -3 10 -715 15
-730 5z"/>
<path d="M5482 5220 c0 -14 2 -19 5 -12 2 6 2 18 0 25 -3 6 -5 1 -5 -13z"/>
<path d="M4570 5220 c0 -6 -4 -9 -9 -6 -5 3 -11 -1 -15 -9 -7 -19 11 -19 30
-1 9 9 10 17 4 21 -5 3 -10 1 -10 -5z"/>
<path d="M9350 5220 c0 -5 5 -10 11 -10 5 0 7 5 4 10 -3 6 -8 10 -11 10 -2 0
-4 -4 -4 -10z"/>
<path d="M5992 5213 c4 -3 3 -15 -2 -27 -7 -19 -4 -26 15 -36 13 -7 28 -9 34
-5 6 3 10 3 9 -2 -5 -14 6 -15 41 -6 31 8 32 10 15 23 -11 9 -15 10 -10 2 5
-9 -1 -11 -26 -8 -42 6 -68 16 -68 26 0 15 18 21 23 8 4 -10 6 -10 6 0 1 8 6
10 14 6 6 -4 8 -3 4 1 -4 5 -13 10 -20 11 -7 1 -19 4 -27 6 -8 3 -12 3 -8 1z"/>
<path d="M6466 5193 c-6 -14 -5 -15 5 -6 7 7 10 15 7 18 -3 3 -9 -2 -12 -12z"/>
<path d="M4033 5181 c-10 -15 -9 -20 2 -25 10 -3 12 0 8 12 -6 15 -5 16 12 2
17 -14 18 -14 6 8 -14 27 -13 27 -28 3z"/>
<path d="M9380 5190 c0 -5 5 -10 11 -10 5 0 7 5 4 10 -3 6 -8 10 -11 10 -2 0
-4 -4 -4 -10z"/>
<path d="M4597 5169 c-18 -10 -18 -11 0 -26 13 -10 15 -16 6 -19 -19 -8 -16
-24 3 -17 11 4 14 14 10 34 -3 17 -1 29 7 33 7 2 8 5 2 5 -5 0 -18 -4 -28 -10z"/>
<path d="M6385 5170 c-4 -6 -10 -8 -15 -5 -15 9 -23 -16 -10 -28 9 -9 11 -9 7
-1 -4 7 0 14 8 18 15 5 19 -5 15 -34 -1 -8 1 -12 5 -8 10 10 13 58 4 63 -4 3
-10 1 -14 -5z"/>
<path d="M6530 5170 c0 -5 5 -10 11 -10 5 0 7 5 4 10 -3 6 -8 10 -11 10 -2 0
-4 -4 -4 -10z"/>
<path d="M9420 5150 c0 -5 5 -10 11 -10 5 0 7 5 4 10 -3 6 -8 10 -11 10 -2 0
-4 -4 -4 -10z"/>
<path d="M4466 5124 c-5 -12 -2 -15 10 -10 8 3 18 6 20 6 2 0 4 5 4 10 0 16
-27 11 -34 -6z"/>
<path d="M9450 5121 c0 -5 5 -13 10 -16 6 -3 10 -2 10 4 0 5 -4 13 -10 16 -5
3 -10 2 -10 -4z"/>
<path d="M4538 5113 c7 -3 16 -2 19 1 4 3 -2 6 -13 5 -11 0 -14 -3 -6 -6z"/>
<path d="M6320 5105 c0 -8 2 -15 4 -15 2 0 6 7 10 15 3 8 1 15 -4 15 -6 0 -10
-7 -10 -15z"/>
<path d="M3943 5093 c-17 -6 -16 -20 1 -26 8 -3 17 1 20 8 6 17 -3 24 -21 18z"/>
<path d="M6170 5095 c0 -2 10 -10 23 -16 20 -11 21 -11 8 4 -13 16 -31 23 -31
12z"/>
<path d="M6296 5091 c-4 -6 -4 -11 0 -11 4 0 -1 -9 -11 -20 -17 -18 -17 -20
-2 -14 12 4 17 1 17 -10 0 -19 16 -21 22 -3 7 18 -18 72 -26 58z m18 -37 c3
-8 2 -12 -4 -9 -6 3 -10 10 -10 16 0 14 7 11 14 -7z"/>
<path d="M6360 5095 c0 -18 19 -40 26 -32 4 4 0 15 -9 24 -9 10 -17 13 -17 8z"/>
<path d="M4412 5078 c-16 -16 -15 -28 3 -28 8 0 15 2 15 4 0 2 3 11 6 20 7 19
-7 21 -24 4z"/>
<path d="M6120 5076 c0 -8 7 -17 16 -20 9 -3 14 -12 12 -18 -5 -13 33 -48 51
-48 6 0 11 7 11 15 0 9 -9 15 -22 15 -15 0 -27 9 -35 26 -11 23 -10 24 10 18
19 -6 20 -5 8 10 -16 20 -51 21 -51 2z"/>
<path d="M9490 5080 c0 -5 5 -10 11 -10 5 0 7 5 4 10 -3 6 -8 10 -11 10 -2 0
-4 -4 -4 -10z"/>
<path d="M6241 5043 c7 -12 15 -20 18 -17 3 2 -3 12 -13 22 -17 16 -18 16 -5
-5z"/>
<path d="M3903 5032 c1 -12 6 -18 14 -15 16 6 13 25 -5 31 -6 2 -10 -6 -9 -16z"/>
<path d="M9501 5034 c0 -11 3 -14 6 -6 3 7 2 16 -1 19 -3 4 -6 -2 -5 -13z"/>
<path d="M4370 5030 c0 -5 5 -10 11 -10 5 0 7 5 4 10 -3 6 -8 10 -11 10 -2 0
-4 -4 -4 -10z"/>
<path d="M6356 5021 c-5 -8 -3 -17 5 -22 17 -11 39 -12 23 -1 -6 4 -13 14 -16
22 -3 11 -6 11 -12 1z"/>
<path d="M9560 5012 c0 -7 5 -12 11 -12 11 0 9 -16 -6 -52 -4 -10 -3 -18 3
-18 18 0 24 63 7 79 -10 10 -15 11 -15 3z"/>
<path d="M4331 4991 c-9 -16 -8 -18 9 -14 21 6 26 18 11 28 -6 3 -15 -3 -20
-14z"/>
<path d="M6265 4989 c-9 -14 0 -22 18 -17 13 2 13 5 2 15 -10 9 -16 9 -20 2z"/>
<path d="M4400 4980 c-13 -8 -12 -10 3 -10 9 0 17 5 17 10 0 12 -1 12 -20 0z"/>
<path d="M6340 4980 c0 -5 9 -10 21 -10 11 0 17 5 14 10 -3 6 -13 10 -21 10
-8 0 -14 -4 -14 -10z"/>
<path d="M6120 4970 c0 -5 7 -7 15 -4 8 4 15 8 15 10 0 2 -7 4 -15 4 -8 0 -15
-4 -15 -10z"/>
<path d="M3760 4964 c0 -9 24 -30 42 -37 12 -4 15 -2 11 9 -3 7 -9 14 -15 14
-5 0 -6 5 -3 10 3 6 -3 10 -14 10 -12 0 -21 -3 -21 -6z"/>
<path d="M3393 4895 c0 -38 2 -53 4 -32 2 20 2 52 0 70 -2 17 -4 1 -4 -38z"/>
<path d="M4270 4930 c-9 -16 -8 -20 5 -20 8 0 15 2 15 4 0 2 3 11 6 20 9 23
-13 20 -26 -4z"/>
<path d="M3753 4912 c-9 -6 -6 -11 7 -20 10 -6 21 -8 24 -3 8 13 -18 31 -31
23z"/>
<path d="M9567 4876 c-4 -9 -4 -23 0 -33 5 -14 8 -12 15 7 5 13 5 27 0 32 -6
6 -12 3 -15 -6z"/>
<path d="M3745 4859 c-4 -6 -5 -12 -2 -15 2 -3 7 2 10 11 7 17 1 20 -8 4z"/>
<path d="M4187 4846 c-4 -10 0 -12 14 -9 22 6 26 23 5 23 -8 0 -16 -6 -19 -14z"/>
<path d="M4266 4845 c-11 -9 -14 -15 -7 -15 7 0 19 7 27 15 20 19 5 19 -20 0z"/>
<path d="M3437 4823 c-11 -11 -8 -273 3 -273 6 0 10 53 10 140 0 77 -1 140 -3
140 -2 0 -7 -3 -10 -7z"/>
<path d="M3620 4823 c0 -7 32 -32 43 -33 17 0 5 18 -18 28 -14 6 -25 9 -25 5z"/>
<path d="M3687 4809 c-4 -15 -2 -15 24 -2 35 18 37 23 5 21 -14 -1 -27 -10
-29 -19z"/>
<path d="M9590 4821 c-8 -6 -18 -7 -22 -5 -4 3 -5 -3 -1 -12 4 -11 8 -13 11
-6 2 7 10 12 18 12 8 0 14 5 14 10 0 12 -1 12 -20 1z"/>
<path d="M3600 4801 c0 -7 7 -19 15 -27 13 -13 15 -13 15 -1 0 8 -7 20 -15 27
-11 9 -15 10 -15 1z"/>
<path d="M4130 4790 c-9 -16 -8 -20 5 -20 8 0 15 2 15 4 0 2 3 11 6 20 9 23
-13 20 -26 -4z"/>
<path d="M9597 4770 c8 -30 21 -34 15 -5 -2 14 -8 25 -12 25 -5 0 -6 -9 -3
-20z"/>
<path d="M3629 4743 c-6 -7 -14 -11 -18 -9 -4 3 -7 -5 -8 -17 l-1 -22 15 23
c8 12 21 22 29 22 7 0 15 4 18 8 8 14 -23 10 -35 -5z"/>
<path d="M9566 4734 c-6 -15 -4 -15 11 -3 15 13 16 12 9 -6 -14 -37 -17 -50
-5 -27 16 30 31 28 19 -3 -6 -16 -6 -25 0 -25 6 0 10 -4 10 -10 0 -5 -8 -7
-17 -4 -15 5 -15 4 -3 -4 21 -15 28 -7 26 31 -2 52 -36 86 -50 51z"/>
<path d="M4047 4706 c-4 -10 0 -12 14 -9 22 6 26 23 5 23 -8 0 -16 -6 -19 -14z"/>
<path d="M4126 4705 c-11 -9 -14 -15 -7 -15 7 0 19 7 27 15 20 19 5 19 -20 0z"/>
<path d="M3565 4681 c3 -5 -3 -11 -12 -13 -12 -2 -14 -6 -7 -10 6 -4 19 1 29
12 17 19 17 20 1 20 -9 0 -15 -4 -11 -9z"/>
<path d="M3480 4655 c0 -8 -5 -15 -11 -15 -8 0 -8 -35 0 -69 1 -2 8 2 16 9 14
11 13 14 -1 25 -16 11 -15 14 4 33 26 26 27 32 7 32 -8 0 -15 -7 -15 -15z"/>
<path d="M3990 4650 c-9 -16 -8 -20 5 -20 8 0 15 2 15 4 0 2 3 11 6 20 9 23
-13 20 -26 -4z"/>
<path d="M3526 4633 c-6 -14 -5 -15 5 -6 7 7 10 15 7 18 -3 3 -9 -2 -12 -12z"/>
<path d="M6790 4627 c0 -14 -3 -39 -7 -58 -6 -29 -5 -31 9 -18 11 10 13 16 4
21 -8 6 -8 8 2 8 14 0 17 56 2 65 -6 3 -10 -4 -10 -18z"/>
<path d="M9561 4604 c0 -11 3 -14 6 -6 3 7 2 16 -1 19 -3 4 -6 -2 -5 -13z"/>
<path d="M3928 4583 c-17 -4 -33 -32 -23 -41 3 -3 5 0 5 6 0 7 6 12 14 12 8 0
16 7 20 15 3 8 4 14 3 14 -1 -1 -9 -3 -19 -6z"/>
<path d="M3986 4565 c-11 -9 -14 -15 -7 -15 7 0 19 7 27 15 20 19 5 19 -20 0z"/>
<path d="M9570 4561 c5 -11 10 -36 10 -57 0 -50 6 -40 13 20 3 30 1 43 -4 35
-7 -11 -9 -10 -9 4 0 9 -5 17 -10 17 -7 0 -7 -6 0 -19z"/>
<path d="M3385 4540 c-3 -5 3 -10 15 -10 13 0 19 -4 14 -12 -4 -7 -3 -8 5 -4
9 6 9 11 0 22 -14 16 -25 18 -34 4z"/>
<path d="M3852 4518 c-16 -16 -15 -28 3 -28 8 0 15 2 15 4 0 2 3 11 6 20 7 19
-7 21 -24 4z"/>
<path d="M9600 4460 c0 -5 5 -10 10 -10 6 0 10 5 10 10 0 6 -4 10 -10 10 -5 0
-10 -4 -10 -10z"/>
<path d="M3388 4434 c12 -8 22 -20 22 -26 0 -6 -9 -3 -20 7 -11 10 -20 13 -20
8 0 -6 7 -13 15 -17 9 -3 12 -12 8 -23 -7 -17 -6 -17 11 0 16 16 17 22 6 43
-8 13 -20 24 -29 24 -11 0 -9 -4 7 -16z"/>
<path d="M3769 4427 c-6 -10 -8 -21 -5 -25 3 -3 6 0 6 6 0 7 6 12 14 12 8 0
16 6 19 13 8 21 -23 16 -34 -6z"/>
<path d="M9566 4435 c4 -8 8 -15 10 -15 2 0 4 7 4 15 0 8 -4 15 -10 15 -5 0
-7 -7 -4 -15z"/>
<path d="M3838 4413 c7 -3 16 -2 19 1 4 3 -2 6 -13 5 -11 0 -14 -3 -6 -6z"/>
<path d="M9575 4398 l-20 -21 23 12 c12 6 22 16 22 21 0 13 -2 12 -25 -12z"/>
<path d="M9609 4398 c-6 -20 -6 -39 0 -42 4 -3 7 6 7 20 0 20 -4 32 -7 22z"/>
<path d="M3434 4374 c3 -9 6 -21 6 -26 0 -6 3 -8 7 -5 3 4 12 2 19 -4 10 -8
11 -5 7 13 -6 23 -20 38 -37 38 -4 0 -5 -7 -2 -16z"/>
<path d="M3710 4365 c-11 -13 -10 -14 4 -9 9 3 16 10 16 15 0 13 -6 11 -20 -6z"/>
<path d="M9575 4369 c-4 -6 -5 -12 -2 -15 2 -3 7 2 10 11 7 17 1 20 -8 4z"/>
<path d="M9597 4318 c9 -10 11 -18 5 -18 -6 0 -14 5 -17 10 -15 25 -23 5 -22
-59 1 -40 6 -68 12 -67 18 3 35 17 35 29 0 6 -6 3 -13 -8 -10 -12 -16 -14 -21
-7 -4 7 -2 12 3 12 6 0 10 6 9 13 -2 6 3 11 10 10 6 -2 12 2 12 8 0 6 -6 9
-14 6 -9 -4 -16 3 -20 16 -9 33 -7 49 4 42 6 -4 8 -10 5 -15 -3 -4 2 -13 10
-20 9 -8 15 -8 15 -2 0 6 -6 13 -12 15 -8 4 -7 6 3 6 11 1 17 10 17 25 0 18
-6 24 -19 23 -17 -1 -17 -3 -2 -19z"/>
<path d="M3390 4303 c0 -22 2 -25 10 -13 13 20 13 40 0 40 -5 0 -10 -12 -10
-27z"/>
<path d="M3646 4308 c-9 -12 -16 -29 -15 -38 0 -8 6 -3 13 13 7 15 16 24 21
20 4 -5 5 -3 2 4 -4 6 -1 14 5 16 9 4 10 6 1 6 -6 1 -19 -9 -27 -21z"/>
<path d="M3474 4312 c5 -8 -1 -12 -15 -12 -16 0 -20 -5 -16 -20 3 -11 1 -20
-4 -20 -5 0 -9 -7 -9 -15 0 -27 18 -16 25 16 6 27 8 28 19 13 9 -12 15 -14 20
-6 4 7 2 12 -4 12 -7 0 -10 7 -7 15 4 8 1 17 -5 21 -7 4 -8 3 -4 -4z"/>
<path d="M3697 4313 c-13 -12 -7 -33 8 -33 8 0 15 9 15 20 0 20 -11 26 -23 13z"/>
<path d="M3500 4294 c0 -1 8 -8 17 -15 9 -8 14 -9 10 -2 -4 6 -1 13 5 16 7 3
3 4 -9 4 -13 -1 -23 -2 -23 -3z"/>
<path d="M3405 4180 c-6 -11 42 -26 52 -16 4 3 -2 6 -13 6 -16 0 -17 2 -4 10
12 8 11 10 -7 10 -12 0 -25 -4 -28 -10z"/>
<path d="M9564 4136 c1 -19 4 -32 9 -29 4 2 5 8 2 13 -3 5 -1 11 5 15 5 3 10
14 9 23 0 12 -2 13 -6 3 -4 -10 -7 -10 -13 -2 -4 7 -6 -4 -6 -23z"/>
<path d="M9571 4027 c-8 -10 -7 -14 4 -14 8 0 15 6 15 14 0 7 -2 13 -4 13 -2
0 -9 -6 -15 -13z"/>
<path d="M9510 3950 c0 -22 4 -28 15 -24 8 4 15 17 15 30 0 15 -6 24 -15 24
-10 0 -15 -10 -15 -30z"/>
<path d="M9525 3870 c3 -5 8 -10 11 -10 2 0 4 5 4 10 0 6 -5 10 -11 10 -5 0
-7 -4 -4 -10z"/>
<path d="M9552 3832 c-9 -6 -10 -16 -4 -32 9 -24 9 -23 14 8 2 18 4 32 4 32
-1 0 -7 -4 -14 -8z"/>
<path d="M9501 3763 c-1 -17 16 -25 25 -12 4 7 3 9 -4 5 -5 -3 -13 0 -15 6 -4
9 -6 10 -6 1z"/>
<path d="M9496 3687 c1 -12 3 -24 4 -27 1 -3 1 -9 0 -15 -1 -5 -3 -35 -5 -65
-3 -45 -2 -49 6 -25 5 17 6 38 3 49 -4 11 -2 16 4 12 6 -4 10 1 10 11 0 10 3
27 7 37 6 14 5 17 -3 12 -7 -4 -12 -1 -12 8 0 8 -4 17 -8 20 -5 3 -7 -5 -6
-17z"/>
<path d="M9426 3481 c-4 -5 -3 -16 0 -24 3 -9 -2 -26 -11 -40 -14 -23 -14 -25
0 -31 9 -3 13 -11 9 -17 -4 -8 -3 -9 4 -5 7 4 12 0 12 -10 0 -10 3 -15 6 -11
4 3 3 14 -1 24 -5 10 -7 22 -6 26 1 5 -3 6 -9 2 -5 -3 -10 1 -10 10 0 8 7 18
15 21 8 4 12 10 9 16 -3 5 2 19 13 31 l18 22 -24 -20 c-21 -18 -24 -18 -18 -2
7 18 2 23 -7 8z"/>
<path d="M9462 3457 c-6 -7 -7 -18 -3 -26 7 -10 10 -8 16 8 8 27 2 36 -13 18z"/>
<path d="M9350 3404 c0 -8 5 -12 10 -9 6 3 10 10 10 16 0 5 -4 9 -10 9 -5 0
-10 -7 -10 -16z"/>
<path d="M9368 3289 c-3 -16 -4 -29 -3 -29 0 0 8 8 16 18 12 14 13 21 3 29 -9
9 -13 5 -16 -18z"/>
<path d="M9416 3275 c-3 -9 -11 -13 -17 -9 -8 4 -9 3 -5 -4 4 -7 11 -12 16
-12 9 0 23 31 16 37 -2 2 -6 -3 -10 -12z"/>
<path d="M9371 3214 c0 -11 3 -14 6 -6 3 7 2 16 -1 19 -3 4 -6 -2 -5 -13z"/>
<path d="M9386 3193 c-6 -14 -5 -15 5 -6 7 7 10 15 7 18 -3 3 -9 -2 -12 -12z"/>
<path d="M9357 3176 c-11 -27 7 -41 24 -20 8 10 9 15 2 11 -7 -4 -13 0 -15 10
-3 16 -4 16 -11 -1z"/>
<path d="M9306 3058 c3 -4 9 -8 15 -8 5 0 9 4 9 8 0 5 -7 9 -15 9 -8 0 -12 -4
-9 -9z"/>
<path d="M9287 2977 c-3 -7 -2 -19 3 -26 5 -10 8 -9 13 2 3 7 2 19 -3 26 -5
10 -8 9 -13 -2z"/>
<path d="M9217 2918 c-6 -17 29 -22 39 -6 5 7 2 8 -6 3 -7 -4 -15 -2 -20 5 -5
9 -8 8 -13 -2z"/>
<path d="M9259 2897 c-14 -10 -14 -14 -3 -25 8 -7 14 -9 15 -5 0 4 2 16 4 26
4 20 5 20 -16 4z"/>
<path d="M9216 2881 c-3 -5 1 -14 8 -20 12 -10 13 -8 9 8 -6 23 -9 25 -17 12z"/>
<path d="M9216 2832 c-3 -4 4 -9 15 -9 23 -2 25 3 4 10 -8 4 -16 3 -19 -1z"/>
<path d="M9211 2794 c0 -11 3 -14 6 -6 3 7 2 16 -1 19 -3 4 -6 -2 -5 -13z"/>
<path d="M9153 2680 c3 -9 -4 -34 -14 -55 -11 -22 -14 -33 -6 -25 24 27 36 66
25 81 -8 12 -9 11 -5 -1z"/>
<path d="M9090 2630 c-8 -5 -12 -12 -9 -15 4 -3 12 1 19 10 14 17 11 19 -10 5z"/>
<path d="M9104 2608 l-19 -23 23 19 c12 11 22 21 22 23 0 8 -8 2 -26 -19z"/>
<path d="M3370 2403 c-3 -62 -1 -109 3 -104 4 4 6 55 5 112 l-3 104 -5 -112z"/>
<path d="M9032 2496 c7 -8 17 -12 22 -9 4 3 2 9 -5 14 -22 13 -31 11 -17 -5z"/>
<path d="M9015 2461 c-6 -11 9 -23 19 -14 9 9 7 23 -3 23 -6 0 -12 -4 -16 -9z"/>
<path d="M9003 2399 c-2 -23 3 -25 10 -4 4 8 3 16 -1 19 -4 3 -9 -4 -9 -15z"/>
<path d="M8937 2352 c1 -8 3 -16 3 -19 0 -2 7 2 15 11 19 19 20 32 1 17 -8 -7
-16 -8 -18 -4 -3 4 -3 2 -1 -5z"/>
<path d="M8936 2308 c3 -5 10 -6 15 -3 13 9 11 12 -6 12 -8 0 -12 -4 -9 -9z"/>
<path d="M6811 2294 c0 -11 3 -14 6 -6 3 7 2 16 -1 19 -3 4 -6 -2 -5 -13z"/>
<path d="M4601 2284 c0 -11 3 -14 6 -6 3 7 2 16 -1 19 -3 4 -6 -2 -5 -13z"/>
<path d="M5710 2290 c-8 -5 -10 -10 -5 -10 6 0 17 5 25 10 8 5 11 10 5 10 -5
0 -17 -5 -25 -10z"/>
<path d="M8873 2283 c0 -9 4 -10 14 -2 7 6 13 12 13 14 0 1 -6 2 -13 2 -8 0
-14 -6 -14 -14z"/>
<path d="M8916 2275 c4 -20 3 -26 -4 -17 -7 11 -10 11 -15 -2 -8 -21 8 -29 23
-11 10 12 10 21 2 38 -10 20 -11 19 -6 -8z"/>
<path d="M8872 2227 c10 -8 14 -18 10 -22 -4 -5 -1 -5 6 -1 17 10 15 14 -10
26 -21 10 -21 10 -6 -3z"/>
<path d="M8020 2215 c0 -8 4 -15 9 -15 5 0 12 -10 14 -22 3 -14 5 -9 6 15 1
27 -3 37 -14 37 -8 0 -15 -7 -15 -15z"/>
<path d="M8068 2135 c-4 -17 -1 -25 8 -25 8 0 14 11 14 25 0 14 -4 25 -9 25
-5 0 -11 -11 -13 -25z"/>
<path d="M8800 2121 c0 -6 4 -13 10 -16 6 -3 7 1 4 9 -7 18 -14 21 -14 7z"/>
<path d="M3283 2075 c0 -8 4 -15 9 -15 4 0 8 7 8 15 0 8 -4 15 -8 15 -5 0 -9
-7 -9 -15z"/>
<path d="M5212 2083 c37 -2 100 -2 140 0 40 1 10 3 -67 3 -77 0 -110 -1 -73
-3z"/>
<path d="M8068 2083 c7 -3 16 -2 19 1 4 3 -2 6 -13 5 -11 0 -14 -3 -6 -6z"/>
<path d="M8724 2070 c0 -13 4 -16 10 -10 7 7 7 13 0 20 -6 6 -10 3 -10 -10z"/>
<path d="M8769 2078 c12 -17 9 -23 -12 -19 -5 1 -6 -3 -3 -8 4 -5 0 -11 -6
-14 -7 -2 -10 -7 -7 -11 3 -3 16 5 28 18 21 22 21 24 4 37 -16 13 -17 12 -4
-3z"/>
<path d="M3306 2053 c-6 -14 -5 -15 5 -6 7 7 10 15 7 18 -3 3 -9 -2 -12 -12z"/>
<path d="M4088 2063 c39 -2 105 -2 145 0 39 1 7 3 -73 3 -80 0 -112 -2 -72 -3z"/>
<path d="M6628 2063 c12 -2 30 -2 40 0 9 3 -1 5 -23 4 -22 0 -30 -2 -17 -4z"/>
<path d="M7452 2063 c37 -2 100 -2 140 0 40 1 10 3 -67 3 -77 0 -110 -1 -73
-3z"/>
<path d="M7995 2050 c-3 -5 1 -10 9 -10 9 0 16 5 16 10 0 6 -4 10 -9 10 -6 0
-13 -4 -16 -10z"/>
<path d="M4720 2030 c0 -6 30 -10 70 -10 40 0 70 4 70 10 0 6 -30 10 -70 10
-40 0 -70 -4 -70 -10z"/>
<path d="M5140 2030 c0 -6 53 -10 140 -10 87 0 140 4 140 10 0 6 -53 10 -140
10 -87 0 -140 -4 -140 -10z"/>
<path d="M7950 2030 c0 -5 5 -10 10 -10 6 0 10 5 10 10 0 6 -4 10 -10 10 -5 0
-10 -4 -10 -10z"/>
<path d="M8701 2003 c-1 -26 11 -30 28 -9 9 11 9 16 0 22 -7 4 -9 3 -5 -4 3
-6 2 -13 -3 -16 -5 -4 -12 2 -14 11 -4 14 -5 13 -6 -4z"/>
<path d="M8587 1843 c-4 -3 -7 -11 -7 -17 0 -6 5 -5 12 2 6 6 9 14 7 17 -3 3
-9 2 -12 -2z"/>
<path d="M8511 1814 c0 -11 3 -14 6 -6 3 7 2 16 -1 19 -3 4 -6 -2 -5 -13z"/>
<path d="M8535 1801 c-3 -5 -2 -12 3 -15 5 -3 9 1 9 9 0 17 -3 19 -12 6z"/>
<path d="M8370 1729 c0 -5 5 -7 10 -4 6 3 10 8 10 11 0 2 -4 4 -10 4 -5 0 -10
-5 -10 -11z"/>
<path d="M8445 1730 c-3 -5 -1 -10 4 -10 6 0 11 5 11 10 0 6 -2 10 -4 10 -3 0
-8 -4 -11 -10z"/>
<path d="M8406 1702 c-3 -6 1 -13 10 -16 8 -3 12 -10 9 -16 -3 -5 -1 -10 4
-10 15 0 13 11 -3 33 -8 10 -17 14 -20 9z"/>
<path d="M8382 1658 c-7 -7 -12 -19 -11 -27 0 -11 2 -12 6 -3 2 6 8 10 12 8 4
-3 7 4 7 15 0 10 -1 19 -1 19 -1 0 -6 -5 -13 -12z"/>
<path d="M8284 1591 c4 -5 13 -8 21 -7 25 4 25 12 -1 14 -14 1 -23 -2 -20 -7z"/>
<path d="M8134 1453 c3 -3 -1 -22 -9 -42 -11 -27 -12 -32 -1 -19 7 10 15 16
18 13 2 -3 4 5 4 17 -1 18 5 23 26 23 45 1 42 13 -3 13 -22 1 -39 -2 -35 -5z"/>
<path d="M8095 1439 c-4 -6 -4 -13 -1 -16 3 -4 6 -1 6 6 0 7 5 9 12 5 7 -4 8
-3 4 4 -9 15 -13 15 -21 1z"/>
<path d="M8039 1379 c-10 -6 -8 -9 9 -9 20 0 21 -2 11 -22 l-11 -23 22 23 c12
13 19 26 16 30 -10 10 -32 10 -47 1z"/>
<path d="M7945 1310 c-3 -5 -2 -10 4 -10 5 0 13 5 16 10 3 6 2 10 -4 10 -5 0
-13 -4 -16 -10z"/>
<path d="M7856 1231 c4 -16 3 -21 -5 -17 -6 4 -11 2 -11 -3 0 -6 6 -12 13 -12
6 -1 -1 -5 -18 -9 -26 -7 -27 -8 -7 -9 24 -1 67 26 69 44 1 5 10 12 20 16 12
5 6 7 -17 6 -19 0 -30 -2 -23 -4 7 -2 9 -11 6 -20 -5 -12 -9 -11 -20 8 l-14
24 7 -24z"/>
<path d="M7720 1169 c0 -5 9 -9 20 -9 11 0 20 4 20 8 0 4 -9 8 -20 9 -11 1
-20 -2 -20 -8z"/>
<path d="M7781 1168 c-1 -23 15 -32 23 -12 3 8 2 13 -3 9 -5 -3 -12 1 -14 7
-4 8 -6 7 -6 -4z"/>
<path d="M7745 1130 c-3 -5 -2 -10 4 -10 5 0 13 5 16 10 3 6 2 10 -4 10 -5 0
-13 -4 -16 -10z"/>
<path d="M7598 1103 c6 -3 9 -9 6 -15 -4 -6 2 -5 15 1 27 15 27 16 -7 17 -15
1 -21 -1 -14 -3z"/>
<path d="M7678 1090 c5 -13 3 -13 -10 -2 -11 9 -18 10 -23 2 -3 -5 -5 -10 -3
-11 27 -6 39 -4 52 10 14 15 13 17 -3 17 -13 0 -17 -5 -13 -16z"/>
<path d="M7605 1060 c4 -6 11 -8 16 -5 14 9 11 15 -7 15 -8 0 -12 -5 -9 -10z"/>
<path d="M7528 1033 c7 -3 16 -2 19 1 4 3 -2 6 -13 5 -11 0 -14 -3 -6 -6z"/>
<path d="M7476 1014 c-5 -14 -4 -15 9 -4 17 14 19 20 6 20 -5 0 -12 -7 -15
-16z"/>
<path d="M7559 1013 c-13 -16 -12 -17 4 -4 16 13 21 21 13 21 -2 0 -10 -8 -17
-17z"/>
<path d="M7494 998 l-19 -23 25 20 c14 11 27 21 29 22 2 2 0 3 -6 3 -5 0 -18
-10 -29 -22z"/>
<path d="M7509 983 c-13 -16 -12 -17 4 -4 9 7 17 15 17 17 0 8 -8 3 -21 -13z"/>
<path d="M4389 953 c-13 -17 -13 -17 6 -3 11 8 22 16 24 17 2 2 0 3 -6 3 -6 0
-17 -8 -24 -17z"/>
<path d="M7415 951 c-3 -5 -2 -12 3 -15 5 -3 9 1 9 9 0 17 -3 19 -12 6z"/>
<path d="M4461 886 c-9 -11 -9 -16 0 -22 7 -4 9 -3 5 4 -3 6 2 15 11 21 10 6
13 11 7 11 -6 0 -17 -6 -23 -14z"/>
<path d="M7190 890 c-12 -7 -12 -10 -1 -10 8 0 11 -6 7 -16 -3 -8 -2 -12 3 -9
7 4 13 47 6 45 0 0 -7 -5 -15 -10z"/>
<path d="M7256 888 c3 -5 10 -6 15 -3 13 9 11 12 -6 12 -8 0 -12 -4 -9 -9z"/>
<path d="M7295 891 c-9 -16 -65 -40 -65 -29 0 6 -9 0 -19 -13 -11 -13 -17 -26
-15 -29 3 -2 9 2 14 10 6 8 10 12 10 7 0 -11 52 18 74 42 11 12 16 21 13 21
-3 0 -8 -4 -12 -9z"/>
<path d="M4529 813 c-13 -17 -13 -17 6 -3 11 8 22 16 24 17 2 2 0 3 -6 3 -6 0
-17 -8 -24 -17z"/>
<path d="M7127 813 c3 -7 9 -13 15 -13 5 0 6 5 2 12 -5 8 -2 9 9 5 10 -3 17
-2 17 3 0 5 -11 9 -24 8 -15 -1 -22 -7 -19 -15z"/>
<path d="M7045 790 c3 -15 -3 -24 -18 -30 -12 -5 -17 -9 -10 -9 35 -2 60 37
34 54 -6 3 -8 -4 -6 -15z"/>
<path d="M4601 746 c-9 -11 -9 -16 0 -22 7 -4 9 -3 5 4 -3 6 2 15 11 21 10 6
13 11 7 11 -6 0 -17 -6 -23 -14z"/>
<path d="M6832 744 c-7 -8 -8 -14 -3 -14 10 0 25 19 20 25 -2 1 -10 -3 -17
-11z"/>
<path d="M6919 727 c7 -7 14 -8 21 -1 6 6 2 10 -12 11 -16 2 -18 -1 -9 -10z"/>
<path d="M6855 721 c6 -11 4 -13 -10 -7 -15 5 -16 4 -5 -9 9 -11 16 -13 24 -5
7 7 6 14 -3 23 -11 10 -12 9 -6 -2z"/>
<path d="M6690 695 c0 -9 6 -12 17 -8 11 4 14 3 9 -5 -4 -7 -2 -12 4 -12 7 0
9 7 6 16 -3 9 -6 18 -6 20 0 2 -7 4 -15 4 -8 0 -15 -7 -15 -15z"/>
<path d="M4669 673 c-13 -17 -13 -17 6 -3 11 8 22 16 24 17 2 2 0 3 -6 3 -6 0
-17 -8 -24 -17z"/>
<path d="M6643 685 c4 -5 -1 -17 -10 -28 -10 -11 -12 -17 -5 -13 6 4 12 2 12
-4 0 -6 5 -8 12 -4 9 6 9 9 0 12 -10 3 -10 7 -2 17 8 10 8 15 -2 21 -7 4 -10
3 -5 -1z"/>
<path d="M4802 609 c2 -7 -8 -19 -22 -26 -21 -12 -22 -14 -5 -12 11 1 22 0 25
-1 19 -7 41 -7 45 0 3 5 -4 7 -16 5 -17 -3 -20 0 -16 15 3 11 1 23 -4 26 -5 3
-8 0 -7 -7z"/>
<path d="M6386 609 c3 -5 -10 -10 -28 -10 -18 -1 -25 -3 -15 -6 10 -3 14 -9
10 -16 -5 -9 -2 -8 8 0 12 10 18 10 29 0 10 -10 12 -9 7 5 -4 11 0 18 11 20
13 3 12 5 -6 10 -12 3 -20 2 -16 -3z"/>
<path d="M6440 610 c-9 -6 -10 -10 -3 -10 6 0 15 5 18 10 8 12 4 12 -15 0z"/>
<path d="M6473 603 c-16 -12 -15 -13 3 -13 10 1 30 7 44 14 l25 14 -27 -1
c-15 -1 -35 -8 -45 -14z"/>
<path d="M4727 599 c7 -7 15 -10 18 -7 3 3 -2 9 -12 12 -14 6 -15 5 -6 -5z"/>
<path d="M4950 585 c0 -10 10 -15 30 -15 22 0 28 4 24 15 -4 8 -17 15 -30 15
-15 0 -24 -6 -24 -15z"/>
<path d="M6130 585 c0 -9 9 -15 24 -15 13 0 26 7 30 15 4 11 -2 15 -24 15 -20
0 -30 -5 -30 -15z"/>
<path d="M6230 580 c0 -5 5 -10 11 -10 5 0 7 5 4 10 -3 6 -8 10 -11 10 -2 0
-4 -4 -4 -10z"/>
<path d="M6415 580 c-3 -6 1 -7 9 -4 18 7 21 14 7 14 -6 0 -13 -4 -16 -10z"/>
<path d="M6280 560 c0 -5 7 -10 16 -10 8 0 12 5 9 10 -3 6 -10 10 -16 10 -5 0
-9 -4 -9 -10z"/>
<path d="M5090 539 c0 -5 -6 -7 -12 -3 -7 4 -9 3 -5 -1 13 -15 34 -14 34 1 0
8 -4 14 -9 14 -4 0 -8 -5 -8 -11z"/>
<path d="M5130 531 c-12 -13 -12 -14 2 -9 8 4 21 1 28 -5 10 -9 11 -9 6 1 -9
15 4 15 39 2 20 -8 27 -7 32 5 3 10 12 13 24 10 11 -4 19 -2 19 3 0 4 -13 8
-30 8 -16 0 -30 -3 -30 -8 0 -4 -7 -8 -15 -8 -8 0 -15 4 -15 8 0 14 -46 9 -60
-7z"/>
<path d="M5365 541 c-3 -6 -10 -9 -15 -6 -5 3 -12 0 -16 -7 -4 -7 -4 -10 1 -6
4 4 13 0 20 -9 9 -13 14 -13 20 -3 5 9 4 11 -3 6 -7 -4 -12 -3 -12 3 0 5 6 11
13 14 6 2 9 7 6 11 -4 4 -10 2 -14 -3z"/>
<path d="M5441 521 c-16 -22 -17 -28 -5 -28 7 0 14 7 15 16 0 12 3 11 10 -4 7
-16 8 -14 4 9 -5 23 -3 27 9 23 9 -4 17 -3 20 1 3 4 -4 8 -14 9 -11 1 -28 -11
-39 -26z"/>
<path d="M5540 538 c0 -4 24 -7 53 -7 54 1 49 5 -15 11 -21 2 -38 0 -38 -4z"/>
<path d="M5855 529 c5 -14 1 -19 -14 -19 -12 0 -21 6 -21 13 0 6 -11 12 -24
12 -13 0 -22 -3 -19 -7 2 -5 11 -8 20 -8 8 0 13 -6 10 -13 -3 -9 6 -11 33 -9
30 3 38 8 35 21 -2 14 5 17 41 17 41 0 65 -15 27 -17 -12 0 -13 -2 -5 -6 7 -3
18 0 25 5 17 14 76 22 83 11 9 -15 51 -10 58 6 6 18 -5 20 -21 4 -7 -7 -19 -8
-30 -4 -10 4 -60 9 -111 10 -86 2 -92 1 -87 -16z"/>
<path d="M5038 533 c7 -3 16 -2 19 1 4 3 -2 6 -13 5 -11 0 -14 -3 -6 -6z"/>
<path d="M5504 525 c-18 -9 -19 -13 -8 -23 12 -11 17 -9 16 8 0 3 25 5 56 4
46 -1 48 0 12 3 -24 2 -47 8 -50 12 -3 4 -14 2 -26 -4z"/>
<path d="M5673 528 c16 -6 24 -14 20 -21 -4 -7 1 -6 10 2 9 7 17 19 17 25 0 6
-4 5 -9 -3 -6 -9 -11 -10 -15 -2 -4 6 -17 11 -29 10 -19 0 -19 -2 6 -11z"/>
<path d="M5897 509 c7 -7 15 -10 18 -7 3 3 -2 9 -12 12 -14 6 -15 5 -6 -5z"/>
<path d="M5736 502 c-3 -5 1 -9 9 -9 8 0 12 4 9 9 -3 4 -7 8 -9 8 -2 0 -6 -4
-9 -8z"/>
<path d="M5775 500 c3 -5 8 -10 11 -10 2 0 4 5 4 10 0 6 -5 10 -11 10 -5 0 -7
-4 -4 -10z"/>
</g>
</svg>
